PathFileType	4	(X/Y/Z)	 2.8Hzlow3min.trc
DataRate	CameraRate	NumFrames	NumMarkers	Units	OrigDataRate	OrigDataStartFrame	OrigNumFrames
200	200	8	43	m	200	876	1000
Frame#	Time	C7			LSH			RSH			MAN			RASI			LASI			HIPR			HIPL			RPSI			LPSI			COX			RTHI1			RTHI2			RTHI3			RTHI4			RLKN			RMKN			RSHA1			RSHA2			RSHA3			RSHA4			RLMAL			RMMAL			RHEEL			RMET5			RMET1			RTOE			LTHI1			LTHI2			LTHI3			LTHI4			LLKN			LMKN			LSHA1			LSHA2			LSHA3			LSHA4			LLMAL			LMMAL			LHEEL			LMET5			LMET1			LTOE			
		X1	Y1	Z1	X2	Y2	Z2	X3	Y3	Z3	X4	Y4	Z4	X5	Y5	Z5	X6	Y6	Z6	X7	Y7	Z7	X8	Y8	Z8	X9	Y9	Z9	X10	Y10	Z10	X11	Y11	Z11	X12	Y12	Z12	X13	Y13	Z13	X14	Y14	Z14	X15	Y15	Z15	X16	Y16	Z16	X17	Y17	Z17	X18	Y18	Z18	X19	Y19	Z19	X20	Y20	Z20	X21	Y21	Z21	X22	Y22	Z22	X23	Y23	Z23	X24	Y24	Z24	X25	Y25	Z25	X26	Y26	Z26	X27	Y27	Z27	X28	Y28	Z28	X29	Y29	Z29	X30	Y30	Z30	X31	Y31	Z31	X32	Y32	Z32	X33	Y33	Z33	X34	Y34	Z34	X35	Y35	Z35	X36	Y36	Z36	X37	Y37	Z37	X38	Y38	Z38	X39	Y39	Z39	X40	Y40	Z40	X41	Y41	Z41	X42	Y42	Z42	X43	Y43	Z43	
876	4.3800	-0.283147	1.495592	-0.512733	-0.232458	1.516220	-0.692419	-0.222888	1.485883	-0.344803	-0.156880	1.427000	-0.513193	-0.174391	1.009076	-0.426429	-0.149924	1.012141	-0.638581	-0.244100	1.048433	-0.395760	-0.211070	1.055887	-0.675933	-0.319687	1.045113	-0.485961	-0.310895	1.041643	-0.592519	-0.318728	1.040856	-0.541727	-0.248280	0.794437	-0.352676	-0.229716	0.737538	-0.348584	-0.169137	0.751949	-0.366251	-0.180051	0.812460	-0.372773	-0.233018	0.491592	-0.367565	-0.227781	0.477694	-0.468306	-0.335890	0.325920	-0.366013	-0.347021	0.287812	-0.374546	-0.292306	0.271444	-0.374610	-0.277234	0.310785	-0.370246	-0.361055	0.143346	-0.391543	-0.334020	0.153981	-0.465623	-0.406127	0.134395	-0.444356	-0.280294	0.042806	-0.362038	-0.228570	0.041523	-0.429952	-0.208918	0.036836	-0.420118	-0.257620	0.805941	-0.732864	-0.243056	0.746871	-0.743081	-0.178618	0.755795	-0.738278	-0.185533	0.814573	-0.729208	-0.219157	0.510420	-0.743616	-0.222819	0.492609	-0.635365	-0.316823	0.314254	-0.762847	-0.320150	0.269453	-0.760467	-0.266480	0.263476	-0.760933	-0.255643	0.302976	-0.762493	-0.310593	0.147884	-0.764036	-0.311424	0.152566	-0.687069	-0.369886	0.141267	-0.727239	-0.224902	0.043229	-0.762050	-0.206052	0.047442	-0.683136	-0.180236	0.038394	-0.685879	
877	4.3850	-0.283726	1.499000	-0.512559	-0.233192	1.520190	-0.691928	-0.223568	1.489861	-0.344970	-0.157520	1.431307	-0.513113	-0.173783	1.012623	-0.426378	-0.149280	1.015576	-0.638314	-0.243257	1.052502	-0.395865	-0.210142	1.059934	-0.675621	-0.318912	1.049182	-0.485866	-0.310005	1.045767	-0.592449	-0.317906	1.044982	-0.541642	-0.248786	0.797904	-0.352541	-0.230520	0.740907	-0.348461	-0.169810	0.755043	-0.365900	-0.180398	0.815609	-0.372377	-0.234558	0.495013	-0.367564	-0.228709	0.480869	-0.468340	-0.336168	0.328739	-0.366081	-0.346879	0.290463	-0.374549	-0.292051	0.274551	-0.374020	-0.277298	0.314052	-0.369769	-0.359460	0.145522	-0.390836	-0.331887	0.156146	-0.464628	-0.404107	0.136914	-0.443771	-0.279530	0.043596	-0.361976	-0.228337	0.041856	-0.429788	-0.208671	0.036962	-0.419800	-0.257797	0.809844	-0.732560	-0.243619	0.750674	-0.742747	-0.179120	0.759193	-0.737957	-0.185660	0.818012	-0.728927	-0.221161	0.513778	-0.742991	-0.224372	0.495852	-0.634689	-0.316826	0.316779	-0.761919	-0.319699	0.271958	-0.759796	-0.265921	0.266575	-0.760716	-0.255534	0.306184	-0.762109	-0.308816	0.150200	-0.763855	-0.308868	0.154761	-0.686972	-0.367710	0.144134	-0.726453	-0.224527	0.043782	-0.761682	-0.205652	0.047697	-0.683002	-0.179886	0.038514	-0.686038	
878	4.3900	-0.284296	1.502229	-0.512402	-0.233908	1.523939	-0.691457	-0.224275	1.493611	-0.345132	-0.158158	1.435401	-0.513045	-0.173190	1.015964	-0.426311	-0.148657	1.018814	-0.638034	-0.242401	1.056367	-0.395944	-0.209225	1.063754	-0.675311	-0.318165	1.053047	-0.485728	-0.309145	1.049702	-0.592349	-0.317115	1.048914	-0.541513	-0.249278	0.801179	-0.352403	-0.231299	0.744090	-0.348332	-0.170462	0.757962	-0.365531	-0.180729	0.818583	-0.371965	-0.236030	0.498252	-0.367585	-0.229615	0.483872	-0.468389	-0.336389	0.331386	-0.366144	-0.346705	0.292948	-0.374557	-0.291785	0.277500	-0.373501	-0.277312	0.317137	-0.369317	-0.357915	0.147601	-0.390166	-0.329810	0.158220	-0.463672	-0.402145	0.139309	-0.443216	-0.278741	0.044504	-0.361908	-0.228059	0.042254	-0.429508	-0.208433	0.037113	-0.419321	-0.257984	0.813560	-0.732243	-0.244173	0.754292	-0.742393	-0.179621	0.762424	-0.737650	-0.185794	0.821285	-0.728648	-0.223115	0.516973	-0.742346	-0.225874	0.498917	-0.633998	-0.316788	0.319156	-0.761002	-0.319191	0.274303	-0.759106	-0.265337	0.269544	-0.760448	-0.255396	0.309247	-0.761671	-0.307025	0.152441	-0.763655	-0.306343	0.156890	-0.686832	-0.365561	0.146900	-0.725676	-0.224120	0.044463	-0.761276	-0.205185	0.048018	-0.682858	-0.179475	0.038644	-0.686246	
879	4.3950	-0.284854	1.505265	-0.512268	-0.234596	1.527449	-0.691016	-0.224995	1.497100	-0.345293	-0.158780	1.439255	-0.512987	-0.172617	1.019079	-0.426223	-0.148063	1.021848	-0.637740	-0.241538	1.059991	-0.395995	-0.208345	1.067326	-0.675005	-0.317439	1.056681	-0.485568	-0.308331	1.053438	-0.592214	-0.316365	1.052620	-0.541348	-0.249739	0.804246	-0.352260	-0.232041	0.747070	-0.348199	-0.171074	0.760689	-0.365161	-0.181033	0.821363	-0.371549	-0.237407	0.501296	-0.367630	-0.230479	0.486680	-0.468449	-0.336546	0.333847	-0.366199	-0.346496	0.295267	-0.374529	-0.291508	0.280259	-0.373052	-0.277291	0.320018	-0.368920	-0.356474	0.149579	-0.389564	-0.327858	0.160214	-0.462785	-0.400329	0.141604	-0.442762	-0.277935	0.045533	-0.361819	-0.227718	0.042737	-0.429083	-0.208202	0.037311	-0.418638	-0.258183	0.817066	-0.731914	-0.244722	0.757707	-0.742030	-0.180120	0.765473	-0.737347	-0.185941	0.824365	-0.728378	-0.224998	0.519985	-0.741686	-0.227329	0.501803	-0.633293	-0.316719	0.321387	-0.760134	-0.318646	0.276502	-0.758443	-0.264730	0.272361	-0.760119	-0.255226	0.312147	-0.761180	-0.305269	0.154581	-0.763439	-0.303925	0.158956	-0.686651	-0.363489	0.149535	-0.724935	-0.223673	0.045289	-0.760841	-0.204640	0.048422	-0.682757	-0.179020	0.038788	-0.686538	
880	4.4000	-0.285389	1.508094	-0.512155	-0.235263	1.530702	-0.690606	-0.225730	1.500331	-0.345436	-0.159376	1.442838	-0.512933	-0.172067	1.021949	-0.426111	-0.147506	1.024667	-0.637434	-0.240687	1.063347	-0.396011	-0.207511	1.070643	-0.674703	-0.316738	1.060062	-0.485382	-0.307566	1.056953	-0.592037	-0.315653	1.056088	-0.541141	-0.250155	0.807084	-0.352117	-0.232722	0.749832	-0.348064	-0.171637	0.763209	-0.364802	-0.181304	0.823929	-0.371141	-0.238670	0.504130	-0.367696	-0.231268	0.489296	-0.468527	-0.336644	0.336117	-0.366243	-0.346255	0.297415	-0.374483	-0.291220	0.282813	-0.372668	-0.277241	0.322678	-0.368587	-0.355171	0.151453	-0.389058	-0.326086	0.162126	-0.461998	-0.398692	0.143764	-0.442408	-0.277130	0.046686	-0.361707	-0.227301	0.043322	-0.428493	-0.207970	0.037585	-0.417725	-0.258396	0.820336	-0.731575	-0.245263	0.760892	-0.741658	-0.180613	0.768309	-0.737047	-0.186106	0.827238	-0.728115	-0.226777	0.522796	-0.741013	-0.228741	0.504512	-0.632577	-0.316620	0.323459	-0.759329	-0.318086	0.278543	-0.757820	-0.264122	0.275009	-0.759737	-0.255035	0.314857	-0.760647	-0.303583	0.156623	-0.763205	-0.301688	0.160944	-0.686435	-0.361548	0.151987	-0.724243	-0.223170	0.046276	-0.760380	-0.204000	0.048925	-0.682720	-0.178525	0.038964	-0.686945	
881	4.4050	-0.285899	1.510701	-0.512055	-0.235904	1.533681	-0.690231	-0.226487	1.503321	-0.345516	-0.159934	1.446127	-0.512883	-0.171546	1.024564	-0.425979	-0.146996	1.027266	-0.637120	-0.239851	1.066407	-0.395985	-0.206719	1.073694	-0.674399	-0.316067	1.063168	-0.485160	-0.306859	1.060222	-0.591817	-0.314989	1.059296	-0.540882	-0.250519	0.809689	-0.351976	-0.233337	0.752360	-0.347935	-0.172133	0.765504	-0.364456	-0.181534	0.826270	-0.370750	-0.239790	0.506718	-0.367776	-0.231984	0.491700	-0.468621	-0.336685	0.338182	-0.366266	-0.346000	0.299379	-0.374415	-0.290905	0.285152	-0.372332	-0.277160	0.325108	-0.368324	-0.354018	0.153223	-0.388635	-0.324541	0.163937	-0.461330	-0.397270	0.145763	-0.442145	-0.276356	0.047950	-0.361564	-0.226809	0.044016	-0.427736	-0.207722	0.037968	-0.416600	-0.258619	0.823347	-0.731229	-0.245791	0.763826	-0.741278	-0.181095	0.770921	-0.736749	-0.186285	0.829886	-0.727856	-0.228421	0.525390	-0.740328	-0.230112	0.507029	-0.631847	-0.316496	0.325380	-0.758600	-0.317527	0.280431	-0.757252	-0.263533	0.277456	-0.759311	-0.254830	0.317357	-0.760083	-0.302027	0.158546	-0.762943	-0.299702	0.162841	-0.686186	-0.359800	0.154229	-0.723620	-0.222605	0.047431	-0.759914	-0.203259	0.049557	-0.682761	-0.177981	0.039219	-0.687487	
882	4.4100	-0.286384	1.513078	-0.511970	-0.236521	1.536374	-0.689891	-0.227220	1.506014	-0.345562	-0.160452	1.449108	-0.512837	-0.171059	1.026917	-0.425828	-0.146541	1.029642	-0.636804	-0.239047	1.069147	-0.395916	-0.205976	1.076485	-0.674095	-0.315435	1.065990	-0.484901	-0.306222	1.063233	-0.591558	-0.314387	1.062238	-0.540596	-0.250827	0.812040	-0.351840	-0.233869	0.754638	-0.347812	-0.172562	0.767574	-0.364130	-0.181721	0.828379	-0.370385	-0.240736	0.509048	-0.367867	-0.232604	0.493891	-0.468728	-0.336660	0.340051	-0.366250	-0.345737	0.301154	-0.374332	-0.290569	0.287276	-0.372055	-0.277055	0.327293	-0.368139	-0.353020	0.154882	-0.388282	-0.323249	0.165635	-0.460803	-0.396068	0.147577	-0.441983	-0.275636	0.049326	-0.361394	-0.226249	0.044828	-0.426809	-0.207466	0.038507	-0.415254	-0.258846	0.826088	-0.730876	-0.246307	0.766494	-0.740889	-0.181567	0.773290	-0.736445	-0.186475	0.832293	-0.727600	-0.229892	0.527754	-0.739633	-0.231443	0.509348	-0.631112	-0.316356	0.327159	-0.757976	-0.317003	0.282172	-0.756749	-0.262981	0.279675	-0.758835	-0.254614	0.319628	-0.759490	-0.300643	0.160338	-0.762644	-0.298040	0.164630	-0.685893	-0.358302	0.156219	-0.723062	-0.221970	0.048750	-0.759448	-0.202409	0.050325	-0.682876	-0.177365	0.039602	-0.688179	
883	4.4150	-0.286844	1.515217	-0.511899	-0.237111	1.538785	-0.689597	-0.227927	1.508393	-0.345598	-0.160927	1.451762	-0.512791	-0.170607	1.029003	-0.425668	-0.146146	1.031783	-0.636488	-0.238289	1.071560	-0.395801	-0.205317	1.078997	-0.673803	-0.314850	1.068522	-0.484618	-0.305656	1.065974	-0.591265	-0.313844	1.064893	-0.540285	-0.251071	0.814136	-0.351707	-0.234310	0.756668	-0.347693	-0.172916	0.769412	-0.363833	-0.181860	0.830254	-0.370049	-0.241488	0.511118	-0.367958	-0.233120	0.495867	-0.468838	-0.336572	0.341736	-0.366188	-0.345485	0.302777	-0.374216	-0.290238	0.289162	-0.371848	-0.276926	0.329228	-0.368034	-0.352215	0.156425	-0.388033	-0.322220	0.167210	-0.460430	-0.395084	0.149177	-0.441933	-0.275004	0.050795	-0.361171	-0.225649	0.045800	-0.425715	-0.207206	0.039265	-0.413716	-0.259068	0.828546	-0.730516	-0.246799	0.768892	-0.740498	-0.182019	0.775408	-0.736134	-0.186672	0.834446	-0.727346	-0.231158	0.529878	-0.738927	-0.232732	0.511458	-0.630376	-0.316210	0.328791	-0.757468	-0.316539	0.283763	-0.756311	-0.262487	0.281654	-0.758304	-0.254395	0.321643	-0.758861	-0.299477	0.161984	-0.762297	-0.296761	0.166280	-0.685547	-0.357088	0.157930	-0.722550	-0.221265	0.050216	-0.758993	-0.201459	0.051260	-0.683077	-0.176667	0.040176	-0.689036	
